<svg width="45" height="45" viewBox="0 0 45 45" fill="none" xmlns="http://www.w3.org/2000/svg">
<g id="Invoice Icon">
<path d="M11.625 44H2.12125C1.57045 44 1.12334 43.5546 1.12126 43.0038L1.01141 14.0114C1.00512 12.3501 2.35009 11 4.01139 11H5.99999H22.625H41C39.345 11 38.0051 12.345 38.0114 14L38.1212 42.9962C38.1233 43.55 37.675 44 37.1212 44H22.625H11.625Z" fill="#C7CCCA"/>
<path d="M41 11V11C39.345 11 38.0051 12.345 38.0114 14L38.1212 42.9962C38.1233 43.55 37.675 44 37.1212 44H22.625H11.625H2.12125C1.57045 44 1.12334 43.5546 1.12126 43.0038L1.01141 14.0114C1.00512 12.3501 2.35009 11 4.01139 11H5.99999H22.625H41ZM41 11H42C43.1045 11 44 10.1046 44 9V2.18605L44 2.00003C44 1.44773 43.5523 1 43 1H22.5H6.99999C6.44771 1 5.99999 1.44771 5.99999 2L5.99996 10" stroke="#C7CCCA" stroke-linejoin="round"/>
</g>
</svg>
